<?xml version="1.0" encoding="utf-8"?>
<svg width="24px" height="24px" viewBox="0 0 24 24" version="1.1" xmlns:xlink="http://www.w3.org/1999/xlink" xmlns="http://www.w3.org/2000/svg">
  <defs>
    <path d="M0 0L24 0L24 24L0 24L0 0Z" id="path_1" />
    <clipPath id="mask_1">
      <use xlink:href="#path_1" />
    </clipPath>
  </defs>
  <g id="Instagram-icon">
    <path d="M0 0L24 0L24 24L0 24L0 0Z" id="Background" fill="none" fill-rule="evenodd" stroke="none" />
    <g clip-path="url(#mask_1)">
      <path d="M5 0C2.239 0 0 2.239 0 5L0 13C0 15.761 2.239 18 5 18L13 18C15.761 18 18 15.761 18 13L18 5C18 2.239 15.761 0 13 0L5 0L5 0ZM15 2C15.552 2 16 2.448 16 3C16 3.552 15.552 4 15 4C14.448 4 14 3.552 14 3C14 2.448 14.448 2 15 2L15 2ZM9 4C11.761 4 14 6.239 14 9C14 11.761 11.761 14 9 14C6.239 14 4 11.761 4 9C4 6.239 6.239 4 9 4L9 4ZM9 6C7.34315 6 6 7.34315 6 9C6 10.6569 7.34315 12 9 12C10.6569 12 12 10.6569 12 9C12 7.34315 10.6569 6 9 6L9 6Z" transform="translate(3 3)" id="Shape" fill="#FFFFFF" fill-rule="evenodd" stroke="none" />
    </g>
  </g>
</svg>