<?xml version="1.0" encoding="utf-8"?>
<svg width="24px" height="24px" viewBox="0 0 24 24" version="1.1" xmlns:xlink="http://www.w3.org/1999/xlink" xmlns="http://www.w3.org/2000/svg">
  <defs>
    <path d="M0 0L24 0L24 24L0 24L0 0Z" id="path_1" />
    <clipPath id="mask_1">
      <use xlink:href="#path_1" />
    </clipPath>
  </defs>
  <g id="Linkedin-icon">
    <path d="M0 0L24 0L24 24L0 24L0 0Z" id="Background" fill="none" fill-rule="evenodd" stroke="none" />
    <g clip-path="url(#mask_1)">
      <path d="M15.25 0L2.75 0C1.234 0 0 1.234 0 2.75L0 15.25C0 16.766 1.234 18 2.75 18L15.25 18C16.766 18 18 16.766 18 15.25L18 2.75C18 1.234 16.766 0 15.25 0L15.25 0ZM6 14C6 14.2765 5.7765 14.5 5.5 14.5L4 14.5C3.7235 14.5 3.5 14.2765 3.5 14L3.5 7.5C3.5 7.2235 3.7235 7 4 7L5.5 7C5.7765 7 6 7.2235 6 7.5L6 14L6 14ZM4.75 6C4.0595 6 3.5 5.4405 3.5 4.75C3.5 4.0595 4.0595 3.5 4.75 3.5C5.4405 3.5 6 4.0595 6 4.75C6 5.4405 5.4405 6 4.75 6L4.75 6ZM14.5 14C14.5 14.2765 14.2765 14.5 14 14.5L12.5 14.5C12.2235 14.5 12 14.2765 12 14L12 10.25C12 9.5605 11.4395 9 10.75 9C10.0605 9 9.5 9.5605 9.5 10.25L9.5 14C9.5 14.2765 9.2765 14.5 9 14.5L7.5 14.5C7.2235 14.5 7 14.2765 7 14L7 7.5C7 7.2235 7.2235 7 7.5 7L9 7C9.2765 7 9.5 7.2235 9.5 7.5L9.5 7.7705C10.0315 7.293 10.731 7 11.5 7C13.1545 7 14.5 8.3455 14.5 10L14.5 14L14.5 14Z" transform="translate(3 3)" id="Shape" fill="#FFFFFF" fill-rule="evenodd" stroke="none" />
    </g>
  </g>
</svg>