<svg id="Layer_1" data-name="Layer 1" xmlns="http://www.w3.org/2000/svg" viewBox="0 0 867.32 193.32"><defs><style>.cls-1{fill:#ff2b06;}.cls-2{isolation:isolate;font-size:146.9px;font-family:Helvetica;}</style></defs><path class="cls-1" d="M10.6,172.49,3,161.59h7.22l4,6,4-6h7l-7.57,10.77,8.5,12.24H19l-4.8-7.25L9.4,184.59H2.32Z" transform="translate(0 0)"/><path d="M56.18,171H33.67v-4.76H56.15Zm0,9.53H33.67v-4.77H56.15Z" transform="translate(0 0)"/><path d="M73.4,158H67.08v-5.21H73.4Zm-6.32,3.57H73.4v23H67.08Z" transform="translate(0 0)"/><path d="M77.49,161.59h6v3.2h.18a8.21,8.21,0,0,1,7-3.82c6.72,0,8.41,3.78,8.41,9.48v14.14H92.76v-13c0-3.78-1.11-5.65-4.05-5.65-3.43,0-4.89,1.92-4.89,6.59v12.06H77.49Z" transform="translate(0 0)"/><path d="M119.42,181.65h-.09c-1.47,2.5-4,3.56-7,3.56-6.94,0-10.32-6-10.32-12.32S105.43,161,112.2,161a8,8,0,0,1,6.85,3.42h0V152.81h6.32v31.78h-6Zm-5.52-15.93c-4.14,0-5.56,3.56-5.56,7.34,0,3.61,1.64,7.39,5.56,7.39,4.18,0,5.43-3.65,5.43-7.43S118,165.72,113.9,165.72Z" transform="translate(0 0)"/><path d="M134.51,174.59c.18,4,2.13,5.83,5.65,5.83,2.54,0,4.58-1.56,5-3h5.51c-1.78,5.43-5.56,7.74-10.77,7.74-7.26,0-11.75-5-11.75-12.1,0-6.9,4.76-12.15,11.75-12.15,7.83,0,11.61,6.58,11.17,13.66Zm10.28-4c-.58-3.21-2-4.9-5-4.9a5,5,0,0,0-5.24,4.74.92.92,0,0,0,0,.16Z" transform="translate(0 0)"/><path d="M154,161.59h6v2.94H160A7.66,7.66,0,0,1,166.9,161c7.21,0,10.46,5.83,10.46,12.37,0,6.14-3.38,11.88-10.11,11.88a8.16,8.16,0,0,1-6.89-3.47h-.09v11H154Zm17.09,11.57c0-3.65-1.47-7.43-5.52-7.43s-5.48,3.69-5.48,7.43,1.43,7.3,5.52,7.3,5.48-3.57,5.48-7.31Z" transform="translate(0 0)"/><path d="M185.47,174.59c.18,4,2.13,5.83,5.65,5.83,2.54,0,4.58-1.56,5-3h5.55c-1.78,5.43-5.56,7.74-10.77,7.74-7.26,0-11.75-5-11.75-12.1,0-6.9,4.76-12.15,11.75-12.15,7.83,0,11.61,6.58,11.17,13.66Zm10.28-4c-.58-3.21-2-4.9-5-4.9a5,5,0,0,0-5.24,4.74.92.92,0,0,0,0,.16Z" transform="translate(0 0)"/><path d="M204.92,161.59h6v3.2h.13a8.21,8.21,0,0,1,7-3.82c6.72,0,8.41,3.78,8.41,9.48v14.14h-6.32v-13c0-3.78-1.11-5.65-4-5.65-3.42,0-4.89,1.92-4.89,6.59v12.06h-6.32Z" transform="translate(0 0)"/><path d="M246.84,181.65h-.09c-1.47,2.5-4.05,3.56-7,3.56-7,0-10.33-6-10.33-12.32S232.85,161,239.61,161a8,8,0,0,1,6.86,3.42h0V152.81h6.32v31.78h-6Zm-5.52-15.93c-4.14,0-5.56,3.56-5.56,7.34,0,3.61,1.65,7.39,5.56,7.39,4.19,0,5.43-3.65,5.43-7.43s-1.33-7.3-5.43-7.3Z" transform="translate(0 0)"/><path d="M261.93,174.59c.18,4,2.14,5.83,5.65,5.83,2.54,0,4.59-1.56,5-3h5.56c-1.78,5.43-5.56,7.74-10.77,7.74-7.26,0-11.75-5-11.75-12.1,0-6.9,4.76-12.15,11.75-12.15,7.83,0,11.62,6.58,11.17,13.66Zm10.28-4c-.58-3.21-2-4.9-5-4.9a5,5,0,0,0-5.24,4.74.92.92,0,0,0,0,.16Z" transform="translate(0 0)"/><path d="M281.38,161.59h6v3.2h.13a8.21,8.21,0,0,1,7-3.82c6.72,0,8.42,3.78,8.42,9.48v14.14h-6.26v-13c0-3.78-1.12-5.65-4.06-5.65-3.42,0-4.89,1.92-4.89,6.59v12.06H281.4Z" transform="translate(0 0)"/><path d="M314.89,161.59h4.63v4.23h-4.63v11.39c0,2.14.54,2.67,2.67,2.67a10.32,10.32,0,0,0,2-.17v4.94a25.3,25.3,0,0,1-3.69.22c-3.88,0-7.26-.89-7.26-5.48V165.81h-3.83v-4.22h3.83v-6.9h6.32Z" transform="translate(0 0)"/><path d="M321.83,152.81h6.32v31.78h-6.32Z" transform="translate(0 0)"/><path d="M343.6,187.49c-1.38,3.69-3.56,5.2-7.92,5.2a38.64,38.64,0,0,1-3.88-.22v-5.21a35.16,35.16,0,0,0,3.7.23c2.18-.23,2.89-2.5,2.18-4.32l-8.1-21.58h6.76l5.21,15.76h.12l5-15.76h6.54Z" transform="translate(0 0)"/><path d="M377.11,161c7.26,0,11.93,4.8,11.93,12.15s-4.67,12.1-11.93,12.1-11.88-4.8-11.88-12.1S369.9,161,377.11,161Zm0,19.49c4.32,0,5.61-3.69,5.61-7.34s-1.29-7.39-5.61-7.39-5.56,3.69-5.56,7.39S372.84,180.45,377.11,180.45Z" transform="translate(0 0)"/><path d="M391.35,161.59h6v4.27h.09a8.14,8.14,0,0,1,7.35-4.89,5,5,0,0,1,1.38.22v5.87a11.57,11.57,0,0,0-2.27-.22c-4.63,0-6.24,3.34-6.24,7.39v10.36h-6.32Z" transform="translate(0 0)"/><path d="M429.9,183.12c0,3.79-1.34,10.2-11.93,10.2-4.54,0-9.84-2.14-10.15-7.39h6.28c.58,2.36,2.49,3.16,4.72,3.16,3.51,0,5.11-2.41,5.07-5.7v-3h-.09a7.78,7.78,0,0,1-6.9,3.56c-6.9,0-9.84-5.25-9.84-11.57,0-6,3.43-11.39,9.89-11.39,3,0,5.34,1,6.85,3.69h.09v-3.09h6Zm-6-10.32c0-3.74-1.29-7.08-5.39-7.08-3.56,0-5.12,3.12-5.12,6.54s1.25,6.9,5.12,6.9c3.6,0,5.38-3.07,5.38-6.36Z" transform="translate(0 0)"/><path d="M432.92,168.66c.36-5.92,5.66-7.7,10.82-7.7,4.58,0,10.1,1,10.1,6.54v12c0,2.1.23,4.19.8,5.12h-6.41a9.3,9.3,0,0,1-.44-2.22,10.53,10.53,0,0,1-7.75,2.84c-4.36,0-7.83-2.18-7.83-6.89,0-5.21,3.92-6.46,7.83-7s7.48-.45,7.48-3-1.87-3.11-4.09-3.11c-2.41,0-4,1-4.19,3.47Zm14.6,4.67c-1.07.94-3.29,1-5.25,1.34s-3.74,1.06-3.74,3.38,1.83,2.94,3.87,2.94c4.94,0,5.12-3.92,5.12-5.3Z" transform="translate(0 0)"/><path d="M457.85,161.59h6v3.2H464a8.21,8.21,0,0,1,7-3.82c6.72,0,8.41,3.78,8.41,9.48v14.14h-6.32v-13c0-3.78-1.11-5.65-4.05-5.65-3.42,0-4.89,1.92-4.89,6.59v12.06h-6.32Z" transform="translate(0 0)"/><path d="M489,158h-6.29v-5.21H489Zm-6.29,3.57H489v23h-6.32Z" transform="translate(0 0)"/><path d="M491.67,179.83l12-13.49H492.52v-4.75h19.4v4.76l-12,13.49h12.85v4.75h-21.1Z" transform="translate(0 0)"/><path d="M520.47,174.59c.18,4,2.13,5.83,5.65,5.83,2.54,0,4.59-1.56,5-3h5.55c-1.78,5.43-5.56,7.74-10.77,7.74-7.26,0-11.75-5-11.75-12.1,0-6.9,4.76-12.15,11.75-12.15,7.83,0,11.61,6.58,11.17,13.66Zm10.28-4c-.58-3.21-2-4.9-5-4.9a5,5,0,0,0-5.24,4.74.92.92,0,0,0,0,.16Z" transform="translate(0 0)"/><path d="M556.34,181.65h-.09c-1.47,2.5-4,3.56-7,3.56-6.94,0-10.32-6-10.32-12.32S542.36,161,549.12,161a8,8,0,0,1,6.86,3.42h0V152.81h6.32v31.78h-6Zm-5.52-15.93c-4.14,0-5.56,3.56-5.56,7.34,0,3.61,1.65,7.39,5.56,7.39,4.19,0,5.43-3.65,5.43-7.43s-1.33-7.3-5.43-7.3Z" transform="translate(0 0)"/><path d="M585.4,158.69h-9.52v-5.88h26v5.88h-9.53v25.9h-7Z" transform="translate(0 0)"/><path d="M604.67,152.81h23.77v5.88H611.67v6.81h15.4v5.43h-15.4v7.79h17.14v5.87H604.67Z" transform="translate(0 0)"/><path d="M631.73,152.81h13.71c8.24,0,14.42,5.17,14.42,15.71,0,9.22-4.71,16.07-14.42,16.07H631.73Zm7,25.91H645c4,0,7.93-2.5,7.93-9.53,0-6.41-2.23-10.5-9.17-10.5h-5Z" transform="translate(0 0)"/><path d="M679.85,174.59c.17,4,2.13,5.83,5.65,5.83,2.54,0,4.58-1.56,5-3h5.57c-1.78,5.43-5.57,7.74-10.77,7.74-7.26,0-11.75-5-11.75-12.1,0-6.9,4.76-12.15,11.75-12.15,7.83,0,11.61,6.58,11.17,13.66Zm10.28-4c-.58-3.21-2-4.9-5-4.9a5,5,0,0,0-5.24,4.74.92.92,0,0,0,0,.16Z" transform="translate(0 0)"/><path d="M711.14,184.59h-7l-7.88-23h6.64l4.77,15.7h.09l4.91-15.7h6.27Z" transform="translate(0 0)"/><path d="M725,174.59c.17,4,2.13,5.83,5.65,5.83,2.54,0,4.58-1.56,5-3h5.57c-1.78,5.43-5.57,7.74-10.77,7.74-7.26,0-11.75-5-11.75-12.1,0-6.9,4.76-12.15,11.75-12.15,7.83,0,11.61,6.58,11.17,13.66Zm10.28-4c-.58-3.21-2-4.9-5-4.9a5,5,0,0,0-5.24,4.74.92.92,0,0,0,0,.16Z" transform="translate(0 0)"/><path d="M744.43,161.59h6v3.2h.14a8.21,8.21,0,0,1,7-3.82c6.72,0,8.41,3.78,8.41,9.48v14.14h-6.31v-13c0-3.78-1.11-5.65-4-5.65-3.43,0-4.89,1.92-4.89,6.59v12.06h-6.32Z" transform="translate(0 0)"/><path d="M777.94,161.59h4.63v4.23h-4.63v11.39c0,2.14.53,2.67,2.67,2.67a10.32,10.32,0,0,0,2-.17v4.94a25.44,25.44,0,0,1-3.7.22c-3.87,0-7.25-.89-7.25-5.48V165.81h-3.83v-4.22h3.84v-6.9H778Z" transform="translate(0 0)"/><path class="cls-1" d="M29.67,47.67H0V20.59H91.88V47.71H62.23v78.7H29.67Z" transform="translate(0 0)"/><path class="cls-1" d="M96.94,20.59h89.19V47.71H129.54V60.9h56.59V86.1H129.54V99.29h56.61v27.12H96.94Z" transform="translate(0 0)"/><path class="cls-1" d="M191.67,20.59h53.5c35.27,0,47.73,26.08,47.73,52.75,0,32.47-17.19,53.07-54.1,53.07H191.67Zm32.6,78.7H237c20.31,0,23.28-16.46,23.28-26.4,0-6.66-2.09-25.18-25.66-25.18H224.22Z" transform="translate(0 0)"/><path class="cls-1" d="M339.67,85.59,329.73,69.1l-9.68,16.49H296.16l22.68-33.35L297,20.35H320.9l8.85,15.76,9.1-15.76h23.89L340.91,52.24l22.68,33.35Z" transform="translate(0 0)"/><text class="cls-2" transform="translate(377.56 126.19)">VSSUT</text></svg>