<svg id="Layer_1" data-name="Layer 1" xmlns="http://www.w3.org/2000/svg" viewBox="0 0 782.6 308.47"><defs><style>.cls-1{font-size:146.9px;font-family:Helvetica;}.cls-1,.cls-3{fill:#fff;}.cls-2{fill:#ff2b06;}</style></defs><text class="cls-1" transform="translate(0 238.54)">VSSUT</text><path class="cls-2" d="M89.93,516.4l-7.57-10.91h7.22l4,6,4-6h7l-7.57,10.77,8.5,12.24H98.34l-4.8-7.25-4.81,7.25H81.65Z" transform="translate(-79.29 -228.76)"/><path class="cls-3" d="M135.51,514.88H113v-4.76h22.48Zm0,9.53H113v-4.77h22.48Z" transform="translate(-79.29 -228.76)"/><path class="cls-3" d="M152.73,501.93h-6.32v-5.21h6.32Zm-6.32,3.56h6.32v23h-6.32Z" transform="translate(-79.29 -228.76)"/><path class="cls-3" d="M156.82,505.49h6v3.21H163a8.18,8.18,0,0,1,7-3.83c6.72,0,8.41,3.78,8.41,9.48V528.5h-6.32v-13c0-3.78-1.11-5.65-4.05-5.65-3.43,0-4.89,1.92-4.89,6.59V528.5h-6.33Z" transform="translate(-79.29 -228.76)"/><path class="cls-3" d="M198.75,525.56h-.09c-1.47,2.5-4,3.56-7,3.56-6.94,0-10.32-6-10.32-12.32,0-6.19,3.42-11.93,10.19-11.93a8,8,0,0,1,6.85,3.42h.05V496.72h6.32V528.5h-6Zm-5.52-15.93c-4.14,0-5.56,3.56-5.56,7.34,0,3.61,1.64,7.39,5.56,7.39,4.18,0,5.43-3.65,5.43-7.43S197.33,509.63,193.23,509.63Z" transform="translate(-79.29 -228.76)"/><path class="cls-3" d="M213.84,518.53c.18,4,2.13,5.83,5.65,5.83,2.54,0,4.58-1.56,5-3H230c-1.78,5.43-5.56,7.74-10.77,7.74-7.26,0-11.75-5-11.75-12.1,0-6.9,4.76-12.15,11.75-12.15,7.83,0,11.61,6.59,11.17,13.66Zm10.28-4c-.58-3.21-2-4.9-5-4.9a5,5,0,0,0-5.25,4.9Z" transform="translate(-79.29 -228.76)"/><path class="cls-3" d="M233.29,505.49h6v2.94h.08a7.67,7.67,0,0,1,6.86-3.56c7.21,0,10.46,5.83,10.46,12.37,0,6.14-3.38,11.88-10.11,11.88a8.16,8.16,0,0,1-6.89-3.47h-.09v11h-6.32Zm17.09,11.57c0-3.65-1.47-7.43-5.52-7.43s-5.48,3.69-5.48,7.43,1.43,7.3,5.52,7.3S250.38,520.8,250.38,517.06Z" transform="translate(-79.29 -228.76)"/><path class="cls-3" d="M264.8,518.53c.18,4,2.13,5.83,5.65,5.83,2.54,0,4.58-1.56,5-3H281c-1.78,5.43-5.56,7.74-10.77,7.74-7.26,0-11.75-5-11.75-12.1,0-6.9,4.76-12.15,11.75-12.15,7.83,0,11.61,6.59,11.17,13.66Zm10.28-4c-.58-3.21-2-4.9-5-4.9a5,5,0,0,0-5.25,4.9Z" transform="translate(-79.29 -228.76)"/><path class="cls-3" d="M284.25,505.49h6v3.21h.13a8.18,8.18,0,0,1,7-3.83c6.72,0,8.41,3.78,8.41,9.48V528.5h-6.32v-13c0-3.78-1.11-5.65-4.05-5.65-3.42,0-4.89,1.92-4.89,6.59V528.5h-6.32Z" transform="translate(-79.29 -228.76)"/><path class="cls-3" d="M326.17,525.56h-.09c-1.47,2.5-4.05,3.56-7,3.56-7,0-10.33-6-10.33-12.32,0-6.19,3.43-11.93,10.19-11.93a8,8,0,0,1,6.86,3.42h0V496.72h6.32V528.5h-6Zm-5.52-15.93c-4.14,0-5.56,3.56-5.56,7.34,0,3.61,1.65,7.39,5.56,7.39,4.19,0,5.43-3.65,5.43-7.43S324.75,509.63,320.65,509.63Z" transform="translate(-79.29 -228.76)"/><path class="cls-3" d="M341.26,518.53c.18,4,2.14,5.83,5.65,5.83,2.54,0,4.59-1.56,5-3h5.56c-1.78,5.43-5.56,7.74-10.77,7.74-7.26,0-11.75-5-11.75-12.1,0-6.9,4.76-12.15,11.75-12.15,7.83,0,11.62,6.59,11.17,13.66Zm10.28-4c-.58-3.21-2-4.9-5-4.9a5,5,0,0,0-5.25,4.9Z" transform="translate(-79.29 -228.76)"/><path class="cls-3" d="M360.71,505.49h6v3.21h.13a8.18,8.18,0,0,1,7-3.83c6.72,0,8.42,3.78,8.42,9.48V528.5H376v-13c0-3.78-1.12-5.65-4.06-5.65-3.42,0-4.89,1.92-4.89,6.59V528.5h-6.32Z" transform="translate(-79.29 -228.76)"/><path class="cls-3" d="M394.22,505.49h4.63v4.23h-4.63v11.39c0,2.14.54,2.67,2.67,2.67a10,10,0,0,0,2-.17v4.94a25.34,25.34,0,0,1-3.69.22c-3.88,0-7.26-.89-7.26-5.48V509.72h-3.83v-4.23h3.83v-6.9h6.32Z" transform="translate(-79.29 -228.76)"/><path class="cls-3" d="M401.16,496.72h6.32V528.5h-6.32Z" transform="translate(-79.29 -228.76)"/><path class="cls-3" d="M422.93,531.39c-1.38,3.7-3.56,5.21-7.92,5.21a38.81,38.81,0,0,1-3.88-.22v-5.21a32.25,32.25,0,0,0,3.7.22c2.18-.22,2.89-2.49,2.18-4.31l-8.1-21.59h6.76l5.21,15.76H421l5-15.76h6.54Z" transform="translate(-79.29 -228.76)"/><path class="cls-3" d="M456.44,504.87c7.26,0,11.93,4.8,11.93,12.15s-4.67,12.1-11.93,12.1-11.88-4.8-11.88-12.1S449.23,504.87,456.44,504.87Zm0,19.49c4.32,0,5.61-3.69,5.61-7.34s-1.29-7.39-5.61-7.39-5.56,3.69-5.56,7.39S452.17,524.36,456.44,524.36Z" transform="translate(-79.29 -228.76)"/><path class="cls-3" d="M470.68,505.49h6v4.27h.09a8.14,8.14,0,0,1,7.35-4.89,4.92,4.92,0,0,1,1.38.22V511a11.89,11.89,0,0,0-2.27-.22c-4.63,0-6.24,3.34-6.24,7.39V528.5h-6.32Z" transform="translate(-79.29 -228.76)"/><path class="cls-3" d="M509.23,527c0,3.79-1.34,10.2-11.93,10.2-4.54,0-9.84-2.14-10.15-7.39h6.28c.58,2.36,2.49,3.16,4.72,3.16,3.51,0,5.11-2.41,5.07-5.7v-3h-.09a7.76,7.76,0,0,1-6.9,3.56c-6.9,0-9.84-5.25-9.84-11.57,0-6,3.43-11.39,9.89-11.39,3,0,5.34,1,6.85,3.69h.09v-3.07h6Zm-6-10.32c0-3.74-1.29-7.08-5.39-7.08-3.56,0-5.12,3.12-5.12,6.54s1.25,6.9,5.12,6.9C501.44,523.07,503.22,520,503.22,516.71Z" transform="translate(-79.29 -228.76)"/><path class="cls-3" d="M512.25,512.57c.36-5.92,5.66-7.7,10.82-7.7,4.58,0,10.1,1,10.1,6.54v12c0,2.09.23,4.19.8,5.12h-6.41a9.3,9.3,0,0,1-.44-2.22,10.55,10.55,0,0,1-7.75,2.84c-4.36,0-7.83-2.18-7.83-6.89,0-5.21,3.92-6.46,7.83-7s7.48-.45,7.48-3-1.87-3.11-4.09-3.11c-2.41,0-4,1-4.19,3.47Zm14.6,4.67c-1.07.94-3.29,1-5.25,1.34s-3.74,1.06-3.74,3.38,1.83,2.94,3.87,2.94c4.94,0,5.12-3.92,5.12-5.3Z" transform="translate(-79.29 -228.76)"/><path class="cls-3" d="M537.18,505.49h6v3.21h.13a8.18,8.18,0,0,1,7-3.83c6.72,0,8.41,3.78,8.41,9.48V528.5h-6.32v-13c0-3.78-1.11-5.65-4.05-5.65-3.42,0-4.89,1.92-4.89,6.59V528.5h-6.32Z" transform="translate(-79.29 -228.76)"/><path class="cls-3" d="M568.29,501.93H562v-5.21h6.32ZM562,505.49h6.32v23H562Z" transform="translate(-79.29 -228.76)"/><path class="cls-3" d="M571,523.74l12-13.49H571.85v-4.76h19.4v4.76l-12,13.49H592.1v4.76H571Z" transform="translate(-79.29 -228.76)"/><path class="cls-3" d="M599.8,518.53c.18,4,2.13,5.83,5.65,5.83,2.54,0,4.59-1.56,5-3H616c-1.78,5.43-5.56,7.74-10.77,7.74-7.26,0-11.75-5-11.75-12.1,0-6.9,4.76-12.15,11.75-12.15,7.83,0,11.61,6.59,11.17,13.66Zm10.28-4c-.58-3.21-2-4.9-5-4.9a5,5,0,0,0-5.25,4.9Z" transform="translate(-79.29 -228.76)"/><path class="cls-3" d="M635.67,525.56h-.09c-1.47,2.5-4.05,3.56-7,3.56-6.94,0-10.32-6-10.32-12.32,0-6.19,3.43-11.93,10.19-11.93a8,8,0,0,1,6.86,3.42h0V496.72h6.32V528.5h-6Zm-5.52-15.93c-4.14,0-5.56,3.56-5.56,7.34,0,3.61,1.65,7.39,5.56,7.39,4.19,0,5.43-3.65,5.43-7.43S634.25,509.63,630.15,509.63Z" transform="translate(-79.29 -228.76)"/><path class="cls-3" d="M664.73,502.6h-9.52v-5.88h26v5.88h-9.53v25.9h-7Z" transform="translate(-79.29 -228.76)"/><path class="cls-3" d="M684,496.72h23.77v5.88H691v6.81h15.4v5.43H691v7.79h17.14v5.87H684Z" transform="translate(-79.29 -228.76)"/><path class="cls-3" d="M711.06,496.72h13.71c8.24,0,14.42,5.16,14.42,15.71,0,9.22-4.71,16.07-14.42,16.07H711.06Zm7,25.91h6.23c4.05,0,7.93-2.5,7.93-9.53,0-6.41-2.23-10.5-9.17-10.5h-5Z" transform="translate(-79.29 -228.76)"/><path class="cls-3" d="M759.18,518.53c.17,4,2.13,5.83,5.65,5.83,2.54,0,4.58-1.56,5-3h5.57c-1.78,5.43-5.57,7.74-10.77,7.74-7.26,0-11.75-5-11.75-12.1,0-6.9,4.76-12.15,11.75-12.15,7.83,0,11.61,6.59,11.17,13.66Zm10.28-4c-.58-3.21-2-4.9-5-4.9a5,5,0,0,0-5.25,4.9Z" transform="translate(-79.29 -228.76)"/><path class="cls-3" d="M790.47,528.5h-7l-7.88-23h6.64L787,521.2h.09L792,505.49h6.27Z" transform="translate(-79.29 -228.76)"/><path class="cls-3" d="M804.31,518.53c.17,4,2.13,5.83,5.65,5.83,2.54,0,4.58-1.56,5-3h5.57c-1.78,5.43-5.57,7.74-10.77,7.74-7.26,0-11.75-5-11.75-12.1,0-6.9,4.76-12.15,11.75-12.15,7.83,0,11.61,6.59,11.17,13.66Zm10.28-4c-.58-3.21-2-4.9-5-4.9a5,5,0,0,0-5.25,4.9Z" transform="translate(-79.29 -228.76)"/><path class="cls-3" d="M823.76,505.49h6v3.21h.14a8.18,8.18,0,0,1,7-3.83c6.72,0,8.41,3.78,8.41,9.48V528.5H839v-13c0-3.78-1.11-5.65-4-5.65-3.43,0-4.89,1.92-4.89,6.59V528.5h-6.32Z" transform="translate(-79.29 -228.76)"/><path class="cls-3" d="M857.27,505.49h4.63v4.23h-4.63v11.39c0,2.14.53,2.67,2.67,2.67a10,10,0,0,0,2-.17v4.94a25.39,25.39,0,0,1-3.7.22c-3.87,0-7.25-.89-7.25-5.48V509.72h-3.83v-4.23H851v-6.9h6.32Z" transform="translate(-79.29 -228.76)"/><path class="cls-2" d="M109,256.08H79.33V229h91.88v27.12H141.56v78.7H109Z" transform="translate(-79.29 -228.76)"/><path class="cls-2" d="M176.27,229h89.19v27.12H208.87v13.19h56.59v25.2H208.87v13.19h56.61v27.12H176.27Z" transform="translate(-79.29 -228.76)"/><path class="cls-2" d="M271,229h53.5c35.27,0,47.73,26.08,47.73,52.75,0,32.47-17.19,53.07-54.1,53.07H271Zm32.6,78.7H316.3c20.31,0,23.28-16.46,23.28-26.4,0-6.66-2.09-25.18-25.66-25.18H303.55Z" transform="translate(-79.29 -228.76)"/><path class="cls-2" d="M419,294l-9.94-16.49L399.38,294H375.49l22.68-33.35-21.83-31.89h23.89l8.85,15.76,9.1-15.76h23.89l-21.83,31.89L442.92,294Z" transform="translate(-79.29 -228.76)"/></svg>