<svg id="Layer_1" data-name="Layer 1" xmlns="http://www.w3.org/2000/svg" viewBox="0 0 782.65 308.44"><defs><style>.cls-1{isolation:isolate;font-size:146.9px;font-family:Helvetica;}.cls-2{fill:#ff2b06;}</style></defs><text class="cls-1" transform="translate(0 238.54)">VSSUT</text><path class="cls-2" d="M10.64,287.64,3.07,276.73h7.22l4,6,4-6h7L17.72,287.5l8.5,12.24H19.05l-4.8-7.25-4.81,7.25H2.36Z"/><path d="M56.22,286.12H33.71v-4.76H56.19Zm0,9.53H33.71v-4.77H56.19Z"/><path d="M73.44,273.17H67.12V268h6.32Zm-6.32,3.56h6.32v23H67.12Z"/><path d="M77.53,276.73h6v3.21h.18a8.16,8.16,0,0,1,7-3.83c6.72,0,8.41,3.78,8.41,9.48v14.15H92.8v-13c0-3.78-1.11-5.65-4-5.65-3.43,0-4.89,1.92-4.89,6.59v12.06H77.53Z"/><path d="M119.46,296.8h-.09c-1.47,2.5-4,3.56-7,3.56-6.94,0-10.32-6-10.32-12.32s3.42-11.93,10.19-11.93a8,8,0,0,1,6.85,3.42h0V268h6.32v31.78h-6Zm-5.52-15.93c-4.14,0-5.56,3.56-5.56,7.34,0,3.61,1.64,7.39,5.56,7.39,4.18,0,5.43-3.65,5.43-7.43S118,280.87,113.94,280.87Z"/><path d="M134.55,289.77c.18,4,2.13,5.83,5.65,5.83,2.54,0,4.58-1.56,5-3h5.51c-1.78,5.43-5.56,7.74-10.77,7.74-7.26,0-11.75-5-11.75-12.1,0-6.9,4.76-12.15,11.75-12.15,7.83,0,11.61,6.59,11.17,13.66Zm10.28-4c-.58-3.21-2-4.9-5-4.9a5,5,0,0,0-5.24,4.74.92.92,0,0,0,0,.16Z"/><path d="M154,276.73h6v2.94h.08a7.66,7.66,0,0,1,6.86-3.56c7.21,0,10.46,5.83,10.46,12.37,0,6.14-3.38,11.88-10.11,11.88a8.16,8.16,0,0,1-6.89-3.47h-.09v11H154Zm17.09,11.57c0-3.65-1.47-7.43-5.52-7.43s-5.48,3.69-5.48,7.43,1.43,7.3,5.52,7.3,5.48-3.56,5.48-7.3Z"/><path d="M185.51,289.77c.18,4,2.13,5.83,5.65,5.83,2.54,0,4.58-1.56,5-3h5.55c-1.78,5.43-5.56,7.74-10.77,7.74-7.26,0-11.75-5-11.75-12.1,0-6.9,4.76-12.15,11.75-12.15,7.83,0,11.61,6.59,11.17,13.66Zm10.28-4c-.58-3.21-2-4.9-5-4.9a5,5,0,0,0-5.24,4.74.92.92,0,0,0,0,.16Z"/><path d="M205,276.73h6v3.21h.13a8.16,8.16,0,0,1,7-3.83c6.72,0,8.41,3.78,8.41,9.48v14.15h-6.32v-13c0-3.78-1.11-5.65-4.05-5.65-3.42,0-4.89,1.92-4.89,6.59v12.06h-6.32Z"/><path d="M246.88,296.8h-.09c-1.47,2.5-4,3.56-7,3.56-7,0-10.33-6-10.33-12.32s3.43-11.93,10.19-11.93a8,8,0,0,1,6.86,3.42h0V268h6.32v31.78h-6Zm-5.52-15.93c-4.14,0-5.56,3.56-5.56,7.34,0,3.61,1.65,7.39,5.56,7.39,4.19,0,5.43-3.65,5.43-7.43s-1.33-7.3-5.43-7.3Z"/><path d="M262,289.77c.18,4,2.14,5.83,5.65,5.83,2.54,0,4.59-1.56,5-3h5.56c-1.78,5.43-5.56,7.74-10.77,7.74-7.26,0-11.75-5-11.75-12.1,0-6.9,4.76-12.15,11.75-12.15,7.83,0,11.62,6.59,11.17,13.66Zm10.28-4c-.58-3.21-2-4.9-5-4.9a5,5,0,0,0-5.24,4.74.92.92,0,0,0,0,.16Z"/><path d="M281.42,276.73h6v3.21h.13a8.16,8.16,0,0,1,7-3.83c6.72,0,8.42,3.78,8.42,9.48v14.15h-6.26v-13c0-3.78-1.12-5.65-4.06-5.65-3.42,0-4.89,1.92-4.89,6.59v12.06h-6.32Z"/><path d="M314.93,276.73h4.63V281h-4.63v11.39c0,2.14.54,2.67,2.67,2.67a10.32,10.32,0,0,0,2-.17v4.94a25.3,25.3,0,0,1-3.69.22c-3.88,0-7.26-.89-7.26-5.48V281h-3.83v-4.23h3.83v-6.9H315Z"/><path d="M321.87,268h6.32v31.78h-6.32Z"/><path d="M343.64,302.63c-1.38,3.7-3.56,5.21-7.92,5.21a38.64,38.64,0,0,1-3.88-.22v-5.21a32.66,32.66,0,0,0,3.7.22c2.18-.22,2.89-2.49,2.18-4.31l-8.1-21.59h6.76l5.21,15.76h.12l5-15.76h6.54Z"/><path d="M377.15,276.11c7.26,0,11.93,4.8,11.93,12.15s-4.67,12.1-11.93,12.1-11.88-4.8-11.88-12.1S369.94,276.11,377.15,276.11Zm0,19.49c4.32,0,5.61-3.69,5.61-7.34s-1.29-7.39-5.61-7.39-5.56,3.69-5.56,7.39S372.88,295.6,377.15,295.6Z"/><path d="M391.39,276.73h6V281h.09a8.14,8.14,0,0,1,7.35-4.89,5,5,0,0,1,1.38.22v5.91a11.57,11.57,0,0,0-2.27-.22c-4.63,0-6.24,3.34-6.24,7.39v10.33h-6.32Z"/><path d="M429.94,298.24c0,3.79-1.34,10.2-11.93,10.2-4.54,0-9.84-2.14-10.15-7.39h6.28c.58,2.36,2.49,3.16,4.72,3.16,3.51,0,5.11-2.41,5.07-5.7v-3h-.09a7.78,7.78,0,0,1-6.9,3.56c-6.9,0-9.84-5.25-9.84-11.57,0-6,3.43-11.39,9.89-11.39,3,0,5.34,1,6.85,3.69h.09v-3.07h6Zm-6-10.32c0-3.74-1.29-7.08-5.39-7.08-3.56,0-5.12,3.12-5.12,6.54s1.25,6.9,5.12,6.9c3.6,0,5.38-3,5.38-6.33Z"/><path d="M433,283.81c.36-5.92,5.66-7.7,10.82-7.7,4.58,0,10.1,1,10.1,6.54v12c0,2.09.23,4.19.8,5.12h-6.41a9.3,9.3,0,0,1-.44-2.22,10.53,10.53,0,0,1-7.75,2.84c-4.36,0-7.83-2.18-7.83-6.89,0-5.21,3.92-6.46,7.83-7s7.48-.45,7.48-3-1.87-3.11-4.09-3.11c-2.41,0-4,1-4.19,3.47Zm14.6,4.67c-1.07.94-3.29,1-5.25,1.34s-3.74,1.06-3.74,3.38,1.83,2.94,3.87,2.94c4.94,0,5.12-3.92,5.12-5.3Z"/><path d="M457.89,276.73h6v3.21H464a8.16,8.16,0,0,1,7-3.83c6.72,0,8.41,3.78,8.41,9.48v14.15h-6.32v-13c0-3.78-1.11-5.65-4.05-5.65-3.42,0-4.89,1.92-4.89,6.59v12.06h-6.32Z"/><path d="M489,273.17h-6.29V268H489Zm-6.29,3.56H489v23h-6.32Z"/><path d="M491.71,295l12-13.49H492.56v-4.76H512v4.76L500,295h12.85v4.76h-21.1Z"/><path d="M520.51,289.77c.18,4,2.13,5.83,5.65,5.83,2.54,0,4.59-1.56,5-3h5.55c-1.78,5.43-5.56,7.74-10.77,7.74-7.26,0-11.75-5-11.75-12.1,0-6.9,4.76-12.15,11.75-12.15,7.83,0,11.61,6.59,11.17,13.66Zm10.28-4c-.58-3.21-2-4.9-5-4.9a5,5,0,0,0-5.24,4.74.92.92,0,0,0,0,.16Z"/><path d="M556.38,296.8h-.09c-1.47,2.5-4,3.56-7,3.56-6.94,0-10.32-6-10.32-12.32s3.43-11.93,10.19-11.93a8,8,0,0,1,6.86,3.42h0V268h6.32v31.78h-6Zm-5.52-15.93c-4.14,0-5.56,3.56-5.56,7.34,0,3.61,1.65,7.39,5.56,7.39,4.19,0,5.43-3.65,5.43-7.43s-1.33-7.3-5.43-7.3Z"/><path d="M585.44,273.84h-9.52V268h26v5.88h-9.53v25.9h-7Z"/><path d="M604.71,268h23.77v5.88H611.71v6.81h15.4v5.43h-15.4v7.79h17.14v5.87H604.71Z"/><path d="M631.77,268h13.71c8.24,0,14.42,5.16,14.42,15.71,0,9.22-4.71,16.07-14.42,16.07H631.77Zm7,25.91H645c4,0,7.93-2.5,7.93-9.53,0-6.41-2.23-10.5-9.17-10.5h-5Z"/><path d="M679.89,289.77c.17,4,2.13,5.83,5.65,5.83,2.54,0,4.58-1.56,5-3h5.57c-1.78,5.43-5.57,7.74-10.77,7.74-7.26,0-11.75-5-11.75-12.1,0-6.9,4.76-12.15,11.75-12.15,7.83,0,11.61,6.59,11.17,13.66Zm10.28-4c-.58-3.21-2-4.9-5-4.9a5,5,0,0,0-5.24,4.74.92.92,0,0,0,0,.16Z"/><path d="M711.18,299.74h-7l-7.88-23h6.64l4.77,15.7h.09l4.91-15.71H719Z"/><path d="M725,289.77c.17,4,2.13,5.83,5.65,5.83,2.54,0,4.58-1.56,5-3h5.57c-1.78,5.43-5.57,7.74-10.77,7.74-7.26,0-11.75-5-11.75-12.1,0-6.9,4.76-12.15,11.75-12.15,7.83,0,11.61,6.59,11.17,13.66Zm10.28-4c-.58-3.21-2-4.9-5-4.9a5,5,0,0,0-5.24,4.74.92.92,0,0,0,0,.16Z"/><path d="M744.47,276.73h6v3.21h.14a8.16,8.16,0,0,1,7-3.83c6.72,0,8.41,3.78,8.41,9.48v14.15h-6.31v-13c0-3.78-1.11-5.65-4-5.65-3.43,0-4.89,1.92-4.89,6.59v12.06H744.5Z"/><path d="M778,276.73h4.63V281H778v11.39c0,2.14.53,2.67,2.67,2.67a10.32,10.32,0,0,0,2-.17v4.94a25.44,25.44,0,0,1-3.7.22c-3.87,0-7.25-.89-7.25-5.48V281h-3.83v-4.23h3.84v-6.9H778Z"/><path class="cls-2" d="M29.71,27.32H0V.24H91.92V27.36H62.27v78.7H29.71Z"/><path class="cls-2" d="M97,.24h89.19V27.36H129.58V40.55h56.59v25.2H129.58V78.94h56.61v27.12H97Z"/><path class="cls-2" d="M191.71.24h53.5c35.27,0,47.73,26.08,47.73,52.75,0,32.47-17.19,53.07-54.1,53.07H191.71Zm32.6,78.7H237c20.31,0,23.28-16.46,23.28-26.4,0-6.66-2.09-25.18-25.66-25.18H224.26Z"/><path class="cls-2" d="M339.71,65.24l-9.94-16.49-9.68,16.49H296.2l22.68-33.35L297.05,0h23.89l8.85,15.76L338.89,0h23.89L341,31.89l22.68,33.35Z"/></svg>